<?xml version="1.0" encoding="UTF-8"?>
<svg id="Layer_2" data-name="Layer 2" xmlns="http://www.w3.org/2000/svg" viewBox="0 0 641.63 143.83">
  <g id="Layer_1-2" data-name="Layer 1">
    <g>
      <path d="M337.21,88.88l-.14,54.95-17.57-.03-.05-141.42,17.37-.24.63,11.68c15.48-18.06,50.63-17.35,67.25-1.78,24.5,22.95,20.64,67.83-7.72,83.38-14.52,7.96-31.16,8.1-46.7,3.05l-13.06-9.6ZM394.31,75.47c11.21-13.1,10.94-31.85,2.62-45.51-5.83-9.57-15.58-13.82-26.24-13.83-13.26-.01-24.83,6.79-30.22,19.31-5.88,13.64-4.13,30.19,6.73,41.28,12.49,12.75,35.05,12.85,47.11-1.25Z"/>
      <path d="M276.97,100.11l-.59-11.75c-14.2,14.7-39.22,16.77-56.63,9.61-19.69-8.1-31.07-26.24-30.96-47.31.11-20.56,11.12-38.09,30.26-46.02,18.91-7.84,42.53-6.06,57.53,8.99l.39-11.51,17.53.12-.02,97.6-17.5.28ZM248.05,85.25c14.81-2.83,25.56-13.38,28.09-27.57,3.94-22.13-11.94-40.95-34.11-41.57-20.52-.57-36.11,14.97-35.29,35.62.41,10.38,4.54,20.08,11.87,26.18,8.19,6.82,18.6,9.4,29.44,7.33Z"/>
      <path d="M147.89,69.9l18.39.17c-9.54,29.19-43.97,38.24-69.28,27.54s-33.99-38.86-26.49-63.41c3.93-12.86,12.69-22.65,24.94-28.36,18.16-8.46,39.78-6.76,56.03,5.44,13.67,10.26,19.74,27.31,17.55,44.27l-83.07.06c.03,10.14,5.39,18.44,13.24,23.96,15.39,10.81,39.27,8.36,48.69-9.66ZM150.1,40.54c-.97-9-4.77-12.9-9.77-17.46-12.22-8.61-28.9-9.22-41.46-.77-6.39,4.3-11.24,10.62-11.36,18.35l62.59-.12Z"/>
      <path d="M519.48,69.79l18.06.32c-9.89,30.93-49,40.22-75.89,23.93-29.1-17.63-28.04-60.41-6.23-80.74,15.86-14.78,38.92-16.45,57.98-7.8,19.22,8.72,29.93,29.24,26.84,50.05l-82.73.07c-.16,21.69,23.69,34.76,43.41,29.03,8.04-2.34,14.53-7.22,18.55-14.86ZM521.82,40.55c-1.52-9.97-7.18-16.66-15.31-20.61-10.01-4.86-21.95-4.74-32.11-.1-8.5,3.88-14.92,11.55-15.87,20.82l63.29-.11Z"/>
      <path d="M17.35,99.76l-17.31.2L0,2.33l17.08-.26.71,11.19C28.42.05,42.19-1.91,56.84,1.43v15.51c-10.05-2.07-18.71-.94-26.85,5.01-6.66,4.88-12.45,13.7-12.48,23.29l-.16,54.52Z"/>
      <path d="M574.55,100.11c-6.01.52-11.24.5-18.47.18l32.31-50.38L554.69,1.26c6.97-.64,12.57-.61,19.41-.5l33.04,47.99-32.59,51.35Z"/>
      <polygon points="622.75 100.88 606.77 76.75 615.96 62.29 640.89 100.11 622.75 100.88"/>
      <polygon points="617.05 37.06 607.06 23.1 622.88 .61 641.63 1.08 617.05 37.06"/>
    </g>
  </g>
</svg>